<mxfile host="app.diagrams.net" modified="2023-10-15T21:32:32.237Z" agent="Mozilla/5.0 (Windows NT 10.0; Win64; x64) AppleWebKit/537.36 (KHTML, like Gecko) Chrome/118.0.0.0 Safari/537.36 Edg/118.0.2088.46" etag="Gv_0JIF4L3HJrJmkSmg-" version="22.0.4" type="device">
  <diagram name="PÃ¡gina-1" id="SQbAMwGiE4D6j69Oz8Kl">
    <mxGraphModel dx="906" dy="537" grid="1" gridSize="10" guides="1" tooltips="1" connect="1" arrows="1" fold="1" page="1" pageScale="1" pageWidth="827" pageHeight="1169" math="0" shadow="0">
      <root>
        <mxCell id="0" />
        <mxCell id="1" parent="0" />
        <mxCell id="WntzA6xKbUbKT_VgIzyo-1" value="" style="whiteSpace=wrap;html=1;aspect=fixed;" vertex="1" parent="1">
          <mxGeometry x="160" y="135" width="450" height="450" as="geometry" />
        </mxCell>
        <mxCell id="WntzA6xKbUbKT_VgIzyo-2" value="" style="rounded=0;whiteSpace=wrap;html=1;" vertex="1" parent="1">
          <mxGeometry x="160" y="135" width="450" height="95" as="geometry" />
        </mxCell>
        <mxCell id="WntzA6xKbUbKT_VgIzyo-3" value="" style="rounded=0;whiteSpace=wrap;html=1;" vertex="1" parent="1">
          <mxGeometry x="160" y="510" width="450" height="75" as="geometry" />
        </mxCell>
        <mxCell id="WntzA6xKbUbKT_VgIzyo-4" value="TITULO" style="rounded=1;whiteSpace=wrap;html=1;" vertex="1" parent="1">
          <mxGeometry x="255" y="161.25" width="260" height="42.5" as="geometry" />
        </mxCell>
        <mxCell id="WntzA6xKbUbKT_VgIzyo-5" value="" style="rounded=1;whiteSpace=wrap;html=1;" vertex="1" parent="1">
          <mxGeometry x="255" y="290" width="240" height="180" as="geometry" />
        </mxCell>
        <mxCell id="WntzA6xKbUbKT_VgIzyo-7" value="&lt;blockquote style=&quot;margin: 0 0 0 40px; border: none; padding: 0px;&quot;&gt;&lt;blockquote style=&quot;margin: 0 0 0 40px; border: none; padding: 0px;&quot;&gt;DIAGRAMA&lt;/blockquote&gt;&lt;/blockquote&gt;" style="rounded=0;whiteSpace=wrap;html=1;" vertex="1" parent="1">
          <mxGeometry x="270" y="300" width="210" height="160" as="geometry" />
        </mxCell>
        <mxCell id="WntzA6xKbUbKT_VgIzyo-8" value="" style="rounded=0;whiteSpace=wrap;html=1;" vertex="1" parent="1">
          <mxGeometry x="270" y="430" width="160" height="20" as="geometry" />
        </mxCell>
        <mxCell id="WntzA6xKbUbKT_VgIzyo-9" value="" style="rounded=0;whiteSpace=wrap;html=1;" vertex="1" parent="1">
          <mxGeometry x="270" y="400" width="80" height="20" as="geometry" />
        </mxCell>
        <mxCell id="WntzA6xKbUbKT_VgIzyo-10" value="" style="rounded=0;whiteSpace=wrap;html=1;" vertex="1" parent="1">
          <mxGeometry x="270" y="345" width="120" height="20" as="geometry" />
        </mxCell>
        <mxCell id="WntzA6xKbUbKT_VgIzyo-11" value="" style="rounded=0;whiteSpace=wrap;html=1;" vertex="1" parent="1">
          <mxGeometry x="270" y="370" width="100" height="20" as="geometry" />
        </mxCell>
        <mxCell id="WntzA6xKbUbKT_VgIzyo-12" value="" style="rounded=0;whiteSpace=wrap;html=1;" vertex="1" parent="1">
          <mxGeometry x="270" y="310" width="150" height="20" as="geometry" />
        </mxCell>
        <mxCell id="WntzA6xKbUbKT_VgIzyo-13" value="TITULO DIAGRAMA&amp;nbsp;" style="text;html=1;strokeColor=none;fillColor=none;align=center;verticalAlign=middle;whiteSpace=wrap;rounded=0;" vertex="1" parent="1">
          <mxGeometry x="295" y="260" width="180" height="30" as="geometry" />
        </mxCell>
      </root>
    </mxGraphModel>
  </diagram>
</mxfile>
